<svg xmlns="http://www.w3.org/2000/svg" xmlns:svg="http://www.w3.org/2000/svg" id="svg2" width="557.002" height="451.527" version="1.1"><defs id="defs4"><marker id="Arrow2Mend" orient="auto" refX="0" refY="0" style="overflow:visible"><path id="path4020" d="M 8.7185878,4.0337352 -2.2072895,0.01601326 8.7185884,-4.0017078 c -1.7454984,2.3720609 -1.7354408,5.6174519 -6e-7,8.035443 z" transform="scale(-0.6,-0.6)" style="font-size:12px;fill-rule:evenodd;stroke-width:.625;stroke-linejoin:round"/></marker><marker id="Arrow2Lend" orient="auto" refX="0" refY="0" style="overflow:visible"><path id="path4014" d="M 8.7185878,4.0337352 -2.2072895,0.01601326 8.7185884,-4.0017078 c -1.7454984,2.3720609 -1.7354408,5.6174519 -6e-7,8.035443 z" transform="matrix(-1.1,0,0,-1.1,-1.1,0)" style="font-size:12px;fill-rule:evenodd;stroke-width:.625;stroke-linejoin:round"/></marker></defs><metadata id="metadata7"/><g id="layer1" transform="translate(-7.4185486,-19.719715)"><g id="g3133" transform="translate(-171.43404,-84.903042)"><path id="path2985" d="m 245.91963,269.53006 0,-64.64286" style="fill:none;stroke:#000;stroke-width:1px;stroke-linecap:butt;stroke-linejoin:miter;stroke-opacity:1"/><path id="path2987" d="m 245.91963,193.26767 0,-26.75116" style="fill:none;stroke:#000;stroke-width:1px;stroke-linecap:butt;stroke-linejoin:miter;stroke-opacity:1"/><path id="path2989" d="M 239.99615,202.05734 203.691,232.24794" style="fill:none;stroke:#000;stroke-width:1px;stroke-linecap:butt;stroke-linejoin:miter;stroke-opacity:1"/><path id="path2991" d="m 253.7539,202.05734 35.54083,25.98684" style="fill:none;stroke:#000;stroke-width:1px;stroke-linecap:butt;stroke-linejoin:miter;stroke-opacity:1"/><path id="path2993" d="m 241.52479,278.87139 c 0,0 -32.86571,32.48356 -31.33708,32.86572" style="fill:none;stroke:#000;stroke-width:1px;stroke-linecap:butt;stroke-linejoin:miter;stroke-opacity:1"/><path id="path2995" d="m 250.31446,278.87139 36.68731,28.66196" style="fill:none;stroke:#000;stroke-width:1px;stroke-linecap:butt;stroke-linejoin:miter;stroke-opacity:1"/><path id="path3003" d="m 248.78583,276.00519 c 0,1.37189 -1.11215,2.48403 -2.48404,2.48403 -1.3719,0 -2.48404,-1.11214 -2.48404,-2.48403 0,-1.3719 1.11214,-2.48404 2.48404,-2.48404 1.37189,0 2.48404,1.11214 2.48404,2.48404 z" transform="translate(-0.38215944,-113.50137)" style="fill:#fff;fill-opacity:1;stroke:#030000;stroke-width:.99921262;stroke-linejoin:miter;stroke-miterlimit:4;stroke-opacity:1;stroke-dasharray:none;stroke-dashoffset:0"/><path style="fill:#fff;fill-opacity:1;stroke:#030000;stroke-width:.99921262;stroke-linejoin:miter;stroke-miterlimit:4;stroke-opacity:1;stroke-dasharray:none;stroke-dashoffset:0" id="path3017" d="m 248.78583,276.00519 c 0,1.37189 -1.11215,2.48403 -2.48404,2.48403 -1.3719,0 -2.48404,-1.11214 -2.48404,-2.48403 0,-1.3719 1.11214,-2.48404 2.48404,-2.48404 1.37189,0 2.48404,1.11214 2.48404,2.48404 z" transform="translate(-0.38215944,-1.5286383)"/><path style="fill:#fff;fill-opacity:1;stroke:#030000;stroke-width:.99921262;stroke-linejoin:miter;stroke-miterlimit:4;stroke-opacity:1;stroke-dasharray:none;stroke-dashoffset:0" id="path3019" d="m 248.78583,276.00519 c 0,1.37189 -1.11215,2.48403 -2.48404,2.48403 -1.3719,0 -2.48404,-1.11214 -2.48404,-2.48403 0,-1.3719 1.11214,-2.48404 2.48404,-2.48404 1.37189,0 2.48404,1.11214 2.48404,2.48404 z" transform="translate(-0.38215944,-76.81406)"/><path id="path3021" d="m 248.78583,276.00519 c 0,1.37189 -1.11215,2.48403 -2.48404,2.48403 -1.3719,0 -2.48404,-1.11214 -2.48404,-2.48403 0,-1.3719 1.11214,-2.48404 2.48404,-2.48404 1.37189,0 2.48404,1.11214 2.48404,2.48404 z" transform="translate(47.769935,-44.330504)" style="fill:#fff;fill-opacity:1;stroke:#030000;stroke-width:.99921262;stroke-linejoin:miter;stroke-miterlimit:4;stroke-opacity:1;stroke-dasharray:none;stroke-dashoffset:0"/><path style="fill:#fff;fill-opacity:1;stroke:#030000;stroke-width:.99921262;stroke-linejoin:miter;stroke-miterlimit:4;stroke-opacity:1;stroke-dasharray:none;stroke-dashoffset:0" id="path3023" d="m 248.78583,276.00519 c 0,1.37189 -1.11215,2.48403 -2.48404,2.48403 -1.3719,0 -2.48404,-1.11214 -2.48404,-2.48403 0,-1.3719 1.11214,-2.48404 2.48404,-2.48404 1.37189,0 2.48404,1.11214 2.48404,2.48404 z" transform="translate(45.476978,36.305146)"/><text id="text3025" x="256.047" y="272.757" xml:space="preserve" style="font-size:10px;font-style:normal;font-weight:400;line-height:125%;letter-spacing:0;word-spacing:0;fill:#000;fill-opacity:1;stroke:none;font-family:Sans"><tspan id="tspan3029" x="256.047" y="272.757">Pelvis</tspan></text><text id="text3033" x="254.518" y="194.032" xml:space="preserve" style="font-size:10px;font-style:normal;font-weight:400;line-height:125%;letter-spacing:0;word-spacing:0;fill:#000;fill-opacity:1;stroke:none;font-family:Sans"><tspan id="tspan3035" x="254.518" y="194.032">Spine</tspan></text><text id="text3037" x="252.99" y="159.638" xml:space="preserve" style="font-size:10px;font-style:normal;font-weight:400;line-height:125%;letter-spacing:0;word-spacing:0;fill:#000;fill-opacity:1;stroke:none;font-family:Sans"><tspan id="tspan3039" x="252.99" y="159.638">Head</tspan></text><text id="text3041" x="303.817" y="230.337" xml:space="preserve" style="font-size:10px;font-style:normal;font-weight:400;line-height:125%;letter-spacing:0;word-spacing:0;fill:#000;fill-opacity:1;stroke:none;font-family:Sans"><tspan id="tspan3043" x="303.817" y="230.337">Arm</tspan></text><text id="text3045" x="301.906" y="310.591" xml:space="preserve" style="font-size:10px;font-style:normal;font-weight:400;line-height:125%;letter-spacing:0;word-spacing:0;fill:#000;fill-opacity:1;stroke:none;font-family:Sans"><tspan id="tspan3047" x="301.906" y="310.591">Leg</tspan></text></g><text id="text3049" x="298.084" y="102.998" xml:space="preserve" style="font-size:10px;font-style:normal;font-weight:400;line-height:125%;letter-spacing:0;word-spacing:0;fill:#000;fill-opacity:1;stroke:none;font-family:Sans"><tspan id="tspan3051" x="298.084" y="102.998">Pelvis</tspan></text><text id="text3057" x="392.86" y="193.952" xml:space="preserve" style="font-size:10px;font-style:normal;font-weight:400;line-height:125%;letter-spacing:0;word-spacing:0;fill:#000;fill-opacity:1;stroke:none;font-family:Sans"><tspan id="tspan3059" x="392.86" y="193.952">Head</tspan></text><text id="text3061" x="316.046" y="195.099" xml:space="preserve" style="font-size:10px;font-style:normal;font-weight:400;line-height:125%;letter-spacing:0;word-spacing:0;fill:#000;fill-opacity:1;stroke:none;font-family:Sans"><tspan id="tspan3063" x="316.046" y="195.099">Arm</tspan></text><text id="text3053" x="346.236" y="147.858" xml:space="preserve" style="font-size:10px;font-style:normal;font-weight:400;line-height:125%;letter-spacing:0;word-spacing:0;fill:#000;fill-opacity:1;stroke:none;font-family:Sans"><tspan id="tspan3055" x="346.236" y="147.858">Spine</tspan></text><text id="text3065" x="260.633" y="147.739" xml:space="preserve" style="font-size:10px;font-style:normal;font-weight:400;line-height:125%;letter-spacing:0;word-spacing:0;fill:#000;fill-opacity:1;stroke:none;font-family:Sans"><tspan id="tspan3067" x="260.633" y="147.739">Leg</tspan></text><path style="fill:none;stroke:#000;stroke-width:1px;stroke-linecap:butt;stroke-linejoin:miter;stroke-opacity:1" id="path3129" d="m 272.09755,137.39258 38.21594,-28.2798 43.56619,25.22252"/><path style="fill:none;stroke:#000;stroke-width:1px;stroke-linecap:butt;stroke-linejoin:miter;stroke-opacity:1" id="path3131" d="m 327.89283,184.01604 33.63003,-29.80844 40.50891,25.98684"/><text id="text5122" x="300.702" y="63.8" xml:space="preserve" style="font-size:10px;font-style:normal;font-weight:400;line-height:125%;letter-spacing:0;word-spacing:0;fill:#000;fill-opacity:1;stroke:none;font-family:Sans"><tspan id="tspan5126" x="300.702" y="63.8">Root</tspan></text><text id="text5130" x="329.144" y="291.581" xml:space="preserve" style="font-size:10px;font-style:normal;font-weight:400;line-height:125%;letter-spacing:0;word-spacing:0;fill:#000;fill-opacity:1;stroke:none;font-family:Sans"><tspan id="tspan5132" x="329.144" y="291.581">Root</tspan></text><text id="text5134" x="56.86" y="290.803" xml:space="preserve" style="font-size:10px;font-style:normal;font-weight:400;line-height:125%;letter-spacing:0;word-spacing:0;fill:#000;fill-opacity:1;stroke:none;font-family:Sans"><tspan id="tspan5136" x="56.86" y="290.803">Root</tspan></text><path id="path5138" d="m 311.62686,90.551568 0,-22.16525" style="fill:none;stroke:#000;stroke-width:1px;stroke-linecap:butt;stroke-linejoin:miter;stroke-opacity:1"/><text style="font-size:10px;font-style:normal;font-weight:400;line-height:125%;letter-spacing:0;word-spacing:0;fill:#000;fill-opacity:1;stroke:none;font-family:Sans" id="text3172" x="54.242" y="335.714" xml:space="preserve"><tspan id="tspan3174" x="54.242" y="335.714">Pelvis</tspan></text><text style="font-size:10px;font-style:normal;font-weight:400;line-height:125%;letter-spacing:0;word-spacing:0;fill:#000;fill-opacity:1;stroke:none;font-family:Sans" id="text3176" x="148.913" y="426.668" xml:space="preserve"><tspan id="tspan3178" x="148.913" y="426.668">Head</tspan></text><text style="font-size:10px;font-style:normal;font-weight:400;line-height:125%;letter-spacing:0;word-spacing:0;fill:#000;fill-opacity:1;stroke:none;font-family:Sans" id="text3180" x="72.099" y="427.815" xml:space="preserve"><tspan id="tspan3182" x="72.099" y="427.815">Arm</tspan></text><text style="font-size:10px;font-style:normal;font-weight:400;line-height:125%;letter-spacing:0;word-spacing:0;fill:#000;fill-opacity:1;stroke:none;font-family:Sans" id="text3184" x="102.29" y="380.574" xml:space="preserve"><tspan id="tspan3186" x="102.29" y="380.574">Spine</tspan></text><text style="font-size:10px;font-style:normal;font-weight:400;line-height:125%;letter-spacing:0;word-spacing:0;fill:#000;fill-opacity:1;stroke:none;font-family:Sans" id="text3188" x="16.686" y="380.455" xml:space="preserve"><tspan id="tspan3190" x="16.686" y="380.455">Leg</tspan></text><path id="path3192" d="m 28.15094,370.10858 38.21594,-28.2798 43.56619,25.22252" style="fill:none;stroke:#000;stroke-width:1;stroke-linecap:butt;stroke-linejoin:miter;stroke-miterlimit:4;stroke-opacity:1;stroke-dasharray:1,4;stroke-dashoffset:0"/><path id="path3194" d="m 83.94622,416.73204 33.63003,-29.80844 40.50891,25.98684" style="fill:none;stroke:#000;stroke-width:1;stroke-linecap:butt;stroke-linejoin:miter;stroke-miterlimit:4;stroke-opacity:1;stroke-dasharray:1,4;stroke-dashoffset:0"/><path style="fill:none;stroke:#000;stroke-width:1px;stroke-linecap:butt;stroke-linejoin:miter;stroke-opacity:1;marker-end:url(#Arrow2Mend)" id="path3982" d="m 121.39785,365.90483 c 0,0 -4.96808,-33.63004 -35.15868,-34.77652"/><path style="fill:none;stroke:#000;stroke-width:1px;stroke-linecap:butt;stroke-linejoin:miter;stroke-opacity:1;marker-end:url(#Arrow2Mend)" id="path3984" d="m 20.8899,367.43346 c 0,0 -4.20375,-34.01219 29.42628,-34.77651"/><path style="fill:none;stroke:#000;stroke-width:1px;stroke-linecap:butt;stroke-linejoin:miter;stroke-opacity:1;marker-end:url(#Arrow2Mend)" id="path3986" d="m 164.19971,415.2034 c 0,0 1.52864,-38.59811 -27.13332,-37.83379"/><path style="fill:none;stroke:#000;stroke-width:1px;stroke-linecap:butt;stroke-linejoin:miter;stroke-opacity:1;marker-end:url(#Arrow2Mend)" id="path3988" d="m 79.74246,417.87852 c 0,0 -8.78966,-38.98027 19.10798,-39.36243"/><text id="text4804" x="326.527" y="337.65" xml:space="preserve" style="font-size:10px;font-style:normal;font-weight:400;line-height:125%;letter-spacing:0;word-spacing:0;fill:#000;fill-opacity:1;stroke:none;font-family:Sans"><tspan id="tspan4806" x="326.527" y="337.65">Pelvis</tspan></text><text id="text4808" x="421.303" y="428.604" xml:space="preserve" style="font-size:10px;font-style:normal;font-weight:400;line-height:125%;letter-spacing:0;word-spacing:0;fill:#000;fill-opacity:1;stroke:none;font-family:Sans"><tspan id="tspan4810" x="421.303" y="428.604">Head</tspan></text><text id="text4812" x="344.489" y="429.75" xml:space="preserve" style="font-size:10px;font-style:normal;font-weight:400;line-height:125%;letter-spacing:0;word-spacing:0;fill:#000;fill-opacity:1;stroke:none;font-family:Sans"><tspan id="tspan4814" x="344.489" y="429.75">Arm</tspan></text><text id="text4816" x="374.679" y="382.51" xml:space="preserve" style="font-size:10px;font-style:normal;font-weight:400;line-height:125%;letter-spacing:0;word-spacing:0;fill:#000;fill-opacity:1;stroke:none;font-family:Sans"><tspan id="tspan4818" x="374.679" y="382.51">Spine</tspan></text><text id="text4820" x="289.075" y="382.39" xml:space="preserve" style="font-size:10px;font-style:normal;font-weight:400;line-height:125%;letter-spacing:0;word-spacing:0;fill:#000;fill-opacity:1;stroke:none;font-family:Sans"><tspan id="tspan4822" x="289.075" y="382.39">Leg</tspan></text><path style="fill:none;stroke:#000;stroke-width:1;stroke-linecap:butt;stroke-linejoin:miter;stroke-miterlimit:4;stroke-opacity:1;stroke-dasharray:1,4;stroke-dashoffset:0" id="path4824" d="m 300.54031,372.04421 38.21594,-28.2798 43.56619,25.22252"/><path style="fill:none;stroke:#000;stroke-width:1;stroke-linecap:butt;stroke-linejoin:miter;stroke-miterlimit:4;stroke-opacity:1;stroke-dasharray:1,4;stroke-dashoffset:0" id="path4826" d="m 356.33559,418.66767 33.63003,-29.80844 40.50891,25.98684"/><path style="fill:none;stroke:#000;stroke-width:1px;stroke-linecap:butt;stroke-linejoin:miter;stroke-opacity:1;marker-end:url(#Arrow2Mend)" id="path4828" d="m 323.88885,289.99516 c 0,0 -27.54265,43.32913 -27.92481,82.69155"/><path style="fill:none;stroke:#000;stroke-width:1px;stroke-linecap:butt;stroke-linejoin:miter;stroke-opacity:1;marker-end:url(#Arrow2Mend)" id="path4830" d="m 354.56558,294.70096 c 18.53473,0.57324 34.64538,35.94821 34.26322,77.6036"/><path style="fill:none;stroke:#000;stroke-width:1px;stroke-linecap:butt;stroke-linejoin:miter;stroke-opacity:1;marker-end:url(#Arrow2Mend)" id="path4832" d="m 355.01331,287.12333 c 62.29199,-11.46478 81.20326,81.74179 81.96758,129.12957"/><path style="fill:none;stroke:#000;stroke-width:1px;stroke-linecap:butt;stroke-linejoin:miter;stroke-opacity:1;marker-end:url(#Arrow2Mend)" id="path4836" d="m 327.70578,296.87403 c -13.03513,36.78469 -7.75513,93.90861 14.88172,125.87558"/><text style="font-size:12px;font-style:normal;font-weight:400;line-height:125%;letter-spacing:0;word-spacing:0;fill:#000;fill-opacity:1;stroke:none;font-family:Sans" id="text5022" x="312.99" y="262.543" xml:space="preserve"><tspan id="tspan5030" x="312.99" y="262.543">Offset Matrices</tspan></text><text style="font-size:12px;font-style:normal;font-weight:400;line-height:125%;letter-spacing:0;word-spacing:0;fill:#000;fill-opacity:1;stroke:none;font-family:Sans" id="text5034" x="74.543" y="38.31" xml:space="preserve"><tspan id="tspan5036" x="74.543" y="38.31">Model</tspan></text><text style="font-size:12px;font-style:normal;font-weight:400;line-height:125%;letter-spacing:0;word-spacing:0;fill:#000;fill-opacity:1;stroke:none;font-family:Sans" id="text5038" x="299.992" y="38.31" xml:space="preserve"><tspan id="tspan5040" x="299.992" y="38.31">Bone Hierarchy</tspan></text><text style="font-size:12px;font-style:normal;font-weight:400;line-height:125%;letter-spacing:0;word-spacing:0;fill:#000;fill-opacity:1;stroke:none;font-family:Sans" id="text5042" x="38.92" y="263.292" xml:space="preserve"><tspan id="tspan5044" x="38.92" y="263.292">Node Transformations</tspan></text><g id="g5110" transform="translate(-25.222526,2.2929569)"><text id="text5082" x="46.995" y="453.246" xml:space="preserve" style="font-size:10px;font-style:normal;font-weight:400;line-height:125%;letter-spacing:0;word-spacing:0;fill:#000;fill-opacity:1;stroke:none;font-family:Sans"><tspan id="tspan5086" x="46.995" y="453.246">FinalTransform = Offset x (Scale x Rot x Trans) x (Scale x Rot x Trans) x (Scale x Rot x Trans)</tspan></text><text id="text5090" x="115.634" y="457.266" xml:space="preserve" style="font-size:8px;font-style:normal;font-weight:400;line-height:125%;letter-spacing:0;word-spacing:0;fill:#000;fill-opacity:1;stroke:none;font-family:Sans"><tspan id="tspan5092" x="115.634" y="457.266">Head</tspan></text><text id="text5098" x="432.062" y="457.363" xml:space="preserve" style="font-size:8px;font-style:normal;font-weight:400;line-height:125%;letter-spacing:0;word-spacing:0;fill:#000;fill-opacity:1;stroke:none;font-family:Sans"><tspan id="tspan5100" x="432.062" y="457.363">Spine</tspan></text><text style="font-size:8px;font-style:normal;font-weight:400;line-height:125%;letter-spacing:0;word-spacing:0;fill:#000;fill-opacity:1;stroke:none;font-family:Sans" id="text5102" x="304.038" y="457.266" xml:space="preserve"><tspan id="tspan5104" x="304.038" y="457.266">Head</tspan></text><text id="text5106" x="174.868" y="457.266" xml:space="preserve" style="font-size:8px;font-style:normal;font-weight:400;line-height:125%;letter-spacing:0;word-spacing:0;fill:#000;fill-opacity:1;stroke:none;font-family:Sans"><tspan id="tspan5108" x="174.868" y="457.266">Head</tspan></text><text id="text5383" x="558.593" y="457.266" xml:space="preserve" style="font-size:8px;font-style:normal;font-weight:400;line-height:125%;letter-spacing:0;word-spacing:0;fill:#000;fill-opacity:1;stroke:none;font-family:Sans"><tspan id="tspan5385" x="558.593" y="457.266">Pelvis</tspan></text></g><path style="fill:none;stroke:#000;stroke-width:1;stroke-linecap:butt;stroke-linejoin:miter;stroke-miterlimit:4;stroke-opacity:1;stroke-dasharray:1,4;stroke-dashoffset:0" id="path5159" d="m 67.784935,297.68201 0,25.98684"/><path id="path5161" d="m 340.06961,298.44633 0,25.98684" style="fill:none;stroke:#000;stroke-width:1;stroke-linecap:butt;stroke-linejoin:miter;stroke-miterlimit:4;stroke-opacity:1;stroke-dasharray:1,4;stroke-dashoffset:0"/><path style="fill:none;stroke:#000;stroke-width:1px;stroke-linecap:butt;stroke-linejoin:miter;stroke-opacity:1;marker-end:url(#Arrow2Mend)" id="path5195" d="m 58.4704,297.00642 c 20.254453,-17.96151 26.369005,-35.923 6.878872,-38.98027" transform="translate(17.418549,29.719715)"/><path id="path5381" d="m 349.70149,296.32232 c -0.65158,-1.04253 25.97218,13.94397 2.37637,32.74583" style="fill:none;stroke:#000;stroke-width:1px;stroke-linecap:butt;stroke-linejoin:miter;stroke-opacity:1;marker-end:url(#Arrow2Mend)"/></g></svg>