<svg xmlns="http://www.w3.org/2000/svg" xmlns:svg="http://www.w3.org/2000/svg" xmlns:xlink="http://www.w3.org/1999/xlink" id="svg2383" width="744.094" height="1052.362"><defs id="defs2385"><linearGradient id="linearGradient3215"><stop id="stop3217" offset="0" style="stop-color:#ece6ea;stop-opacity:.8277778"/><stop style="stop-color:#ece9b4;stop-opacity:.56111109" id="stop3221" offset=".63"/><stop id="stop3219" offset="1" style="stop-color:#eced7e;stop-opacity:0"/></linearGradient><linearGradient id="linearGradient3173"><stop style="stop-color:#f1e295;stop-opacity:.97777778" id="stop3175" offset="0"/><stop id="stop3181" offset=".5" style="stop-color:#fbbd2c;stop-opacity:1"/><stop style="stop-color:#f3892b;stop-opacity:1" id="stop3223" offset=".819"/><stop id="stop3225" offset=".909" style="stop-color:#e67016;stop-opacity:1"/><stop style="stop-color:#a44800;stop-opacity:.46666667" id="stop3177" offset="1"/></linearGradient><radialGradient id="radialGradient3179" cx="114.286" cy="475.219" r="140.5" fx="114.286" fy="475.219" gradientUnits="userSpaceOnUse" xlink:href="#linearGradient3173"/><radialGradient id="radialGradient3213" cx="-265.714" cy="369.505" r="54.786" fx="-265.714" fy="369.505" gradientTransform="matrix(1,0,0,0.7913951,0,77.080572)" gradientUnits="userSpaceOnUse" xlink:href="#linearGradient3215"/><radialGradient id="radialGradient2398" cx="114.286" cy="475.219" r="140.5" fx="114.286" fy="475.219" gradientUnits="userSpaceOnUse" xlink:href="#linearGradient3173"/><radialGradient id="radialGradient2400" cx="-265.714" cy="369.505" r="54.786" fx="-265.714" fy="369.505" gradientTransform="matrix(1,0,0,0.7913951,0,77.080572)" gradientUnits="userSpaceOnUse" xlink:href="#linearGradient3215"/></defs><metadata id="metadata2388"/><g id="layer1"><path style="fill:#150000;fill-opacity:1;fill-rule:evenodd;stroke:#000;stroke-width:1px;stroke-linecap:butt;stroke-linejoin:miter;stroke-opacity:1" id="path2396" d="M -721.42857,403.07648 A 163.57143,163.57143 0 1 1 -1048.5714,403.07648 A 163.57143,163.57143 0 1 1 -721.42857,403.07648 z" transform="matrix(0.8824554,0,0,0.8824554,469.25871,52.950901)"/><g id="g2394" transform="translate(-0.9142136,-2.4142136)"><path id="path2393" d="M 254.28571,475.21933 A 140,140 0 1 1 -25.714287,475.21933 A 140,140 0 1 1 254.28571,475.21933 z" transform="translate(-424.30008,-64.300072)" style="fill:url(#radialGradient2398);fill-opacity:1;fill-rule:evenodd;stroke:#000;stroke-width:1px;stroke-linecap:butt;stroke-linejoin:miter;stroke-opacity:0"/><path id="path3203" d="M -211.42858,369.50504 A 54.285713,42.857143 0 1 1 -320.00001,369.50504 A 54.285713,42.857143 0 1 1 -211.42858,369.50504 z" transform="matrix(1.0116594,0.7690251,-0.8042553,0.8715206,281.70302,234.10046)" style="fill:url(#radialGradient2400);fill-opacity:1;stroke:#000;stroke-opacity:0"/></g></g></svg>